<svg xmlns="http://www.w3.org/2000/svg" xmlns:xlink="http://www.w3.org/1999/xlink" preserveAspectRatio="xMidYMid meet" version="1.0" viewBox="-0.1 -0.1 104.5 367.4" zoomAndPan="magnify" style="fill: rgb(168, 98, 85, 0.32);" original_string_length="973"><g id="__id6_s8stuyg36d"><path d="M1.72,359.49l54.63,7.83c0.09,0.01,0.19,0.02,0.28,0.02c0.44,0,0.88-0.15,1.23-0.42c0.43-0.34,0.7-0.83,0.76-1.37 l4.59-45.05c0.06-0.56-0.13-1.12-0.5-1.54s-0.92-0.66-1.48-0.66H6.49c-1.01,0-1.86,0.76-1.99,1.76l-4.49,37.22 C-0.12,358.35,0.64,359.34,1.72,359.49z" style="fill: inherit;"/></g><g id="__id7_s8stuyg36d"><path d="M6.49,274.94h54.73c0.98,0,1.82-0.72,1.98-1.69l41.05-260.49c0.08-0.54-0.05-1.09-0.39-1.52s-0.83-0.71-1.37-0.77L8.96,0.01 C8.4-0.05,7.84,0.13,7.41,0.5C6.99,0.88,6.74,1.42,6.74,1.98L4.49,272.93c0,0.53,0.2,1.05,0.58,1.42 C5.45,274.73,5.96,274.94,6.49,274.94z" style="fill: inherit;"/></g></svg>